<svg width="100" height="60" viewBox="0 0 100 60" fill="none" xmlns="http://www.w3.org/2000/svg">
<path fill-rule="evenodd" clip-rule="evenodd" d="M40.3096 16.2061C40.7306 16.2061 41.07 15.8641 41.07 15.4436C41.0727 15.342 41.055 15.2408 41.018 15.1461C40.9809 15.0513 40.9253 14.965 40.8544 14.8921C40.7834 14.8193 40.6986 14.7613 40.6049 14.7218C40.5112 14.6822 40.4105 14.6619 40.3088 14.6619C40.2071 14.6619 40.1064 14.6822 40.0128 14.7218C39.9191 14.7613 39.8342 14.8193 39.7633 14.8921C39.6923 14.965 39.6367 15.0513 39.5997 15.1461C39.5627 15.2408 39.545 15.342 39.5477 15.4436C39.5477 15.8641 39.8865 16.2061 40.3096 16.2061ZM49.5129 31.8312C50.6436 31.8312 51.4044 31.6787 52.0171 31.4526C52.6266 31.2261 53.095 30.9532 53.4359 30.6738C53.7594 30.4091 53.9647 30.1406 54.31 29.9642C54.6145 29.8068 55.0431 29.7697 55.524 29.7697C56.2146 29.7697 56.9918 29.9832 57.5599 30.2958L57.6416 29.2387C57.2631 29.0519 55.9287 28.584 54.7697 28.584C53.4528 28.584 52.955 28.9392 52.4686 29.3781C51.9028 29.8912 51.1876 30.5012 49.2542 30.5012C48.739 30.5012 47.5026 30.3617 47.0005 30.3617C46.6955 30.3617 46.4613 30.438 46.4613 30.438C46.5533 30.7272 46.7505 31.524 46.7505 31.524C47.2134 31.5817 48.0211 31.8312 49.5129 31.8312ZM43.5687 28.6962C43.9603 28.6962 45.0992 28.87 46.4145 28.9963C47.1617 29.0666 47.9612 29.1221 48.7161 29.1221C50.1937 29.1221 51.8118 28.4196 53.2426 27.6859L52.9626 26.668C52.2943 27.034 51.0226 27.4409 49.9628 27.6097C49.7019 27.6522 48.9443 27.6625 48.7286 27.6282C48.3713 27.5727 47.9427 27.4441 47.4819 27.3603C46.8349 27.2388 46.128 27.2099 45.7092 27.1914C45.2468 27.1707 44.4178 27.2491 44.0104 27.2758C42.5138 27.3652 41.5247 27.7175 40.5781 28.3564C40.1 28.6799 39.4894 29.2082 39.0183 29.8476C39.2607 29.8656 39.9518 30.0584 39.9518 30.0584C40.9725 29.1902 42.5062 28.6962 43.5687 28.6962Z" fill="white"/>
<path fill-rule="evenodd" clip-rule="evenodd" d="M25.5336 29.1879C26.2623 29.1879 26.5548 29.4243 26.9568 29.6661C27.2383 29.8398 27.4595 30.0315 27.6697 30.2216C28.1196 30.6235 27.991 30.9923 27.6381 31.2706C27.4567 31.4149 27.3015 31.5886 26.844 31.886C26.6234 32.0314 26.2422 32.2651 25.9819 32.3751C25.5238 32.5646 25.3245 32.5859 25.1584 32.5859C24.9901 32.5859 24.7221 32.5597 24.5718 32.4099L23.4068 33.1223C23.7565 33.3952 24.1535 33.4878 24.8218 33.4878C25.5766 33.4878 26.179 33.3249 26.923 33.0336C27.8875 32.6518 28.9719 31.9018 29.3319 31.6965C30.0688 31.2755 30.8128 31.0021 31.6096 31.0021C32.3116 31.0021 33.103 31.4176 33.9896 31.8413C35.0364 32.3435 36.3147 32.8353 37.49 32.8353C38.1948 32.8353 38.9839 32.7324 39.8102 32.5641C41.2774 32.2645 42.8552 31.77 44.3993 31.2466L43.8976 30.3452C43.5213 30.4841 42.2321 30.8468 40.846 31.1551C39.6969 31.4073 38.5313 31.6355 37.9268 31.6355C37.4328 31.6355 36.8511 31.5995 36.3305 31.4389C35.4465 31.1731 34.6525 30.8942 34.6525 30.184C34.6525 29.6928 34.8627 29.3453 35.4574 29.1062C36.4198 28.7195 37.9192 28.7435 38.7078 28.7435C38.8554 28.5855 39.4523 27.8677 39.4523 27.8677C38.8203 27.7404 38.1772 27.6753 37.5325 27.6733C36.544 27.6733 35.6306 27.7996 34.8736 28.1177C34.1715 28.4129 33.6193 28.8388 33.2195 29.4144C33.0589 29.6432 32.8933 29.861 32.652 29.861C32.2517 29.861 31.5573 29.5348 30.8318 29.5348C30.5159 29.5348 30.248 29.6002 29.9691 29.6002C29.235 29.6002 28.278 29.0664 27.4257 28.6117C26.8892 28.3252 26.337 28.0567 25.6954 28.0567C25.4296 28.0567 25.0647 28.1226 24.7406 28.2593C24.1176 28.5196 23.4858 28.9406 23.1677 29.2059L23.7385 29.598C24.0713 29.4243 24.6769 29.1879 25.5336 29.1879ZM77.0605 37.3748C74.3172 35.0612 71.6632 32.5298 69.7918 30.4601C66.5599 26.8917 62.1571 20.0821 60.6534 16.2288C60.0978 14.8111 58.9514 15.2926 59.5385 16.7342C60.9584 20.2166 64.2327 25.3373 67.6514 29.5588C66.8546 29.2059 65.8666 28.732 65.3323 28.4962C65.1504 28.7936 64.7006 29.3823 64.2376 29.866C63.7017 30.4237 63.1494 30.8757 62.9784 31.0337C62.6021 31.3839 62.3265 31.41 62.0732 31.0211C61.9583 30.8365 61.7138 30.5059 61.5869 29.9319L60.8603 29.012C60.4709 28.5229 58.6469 26.0274 58.0881 25.1881C57.531 24.3521 56.8082 23.4572 55.6373 23.4572C54.1885 23.4572 53.6886 25.0617 53.5758 26.5262L54.5376 26.108C54.762 25.2006 55.207 24.7273 55.6378 24.7273C55.945 24.7273 56.3219 25.1745 56.3219 25.5083C56.1824 25.9005 55.9292 26.7103 55.8061 27.3361L56.7538 27.6575C56.7538 27.1967 56.9471 26.3601 57.2134 25.9266C57.2134 25.9266 57.476 26.1499 57.574 26.3318C57.6366 26.4495 58.105 27.1651 58.6475 28.1171C59.1316 28.9668 59.6697 30.0163 60.1643 30.8523C60.4034 31.2548 60.6779 31.6153 60.8609 31.8991C61.1054 32.2732 61.3249 32.5352 61.5575 32.6676C61.7753 32.7879 62.0106 32.7912 62.2001 32.7912C62.8128 32.7912 63.0939 32.588 63.5094 32.234C64.2883 31.5625 64.9593 30.6295 65.6531 29.793L67.2892 30.5315C67.9218 30.8324 68.5602 31.121 69.2041 31.3969C70.599 32.9807 72.1604 34.5324 73.7987 36.0078L74.9114 36.9887C75.2147 37.2512 75.5186 37.5088 75.8275 37.7643L77.0605 37.3748Z" fill="white"/>
<path fill-rule="evenodd" clip-rule="evenodd" d="M83.2014 36.8994C80.3992 30.7657 76.7071 23.2225 73.5488 18.6018L72.8114 17.5653C71.757 16.1433 70.6159 14.9642 69.4978 13.8204L68.6297 12.9659C66.4413 10.8456 63.9855 8.7259 62.1142 7.21563C60.4634 5.88563 59.2897 2.81824 55.5083 2.81824C52.1 2.81824 50.9344 5.13512 50.5532 6.49289C50.2999 7.38392 50.1905 7.69164 49.953 8.02604L47.7881 10.6038L50.3419 10.3985L49.0478 12.5471C49.7896 12.3924 54.2682 11.4926 55.1891 12.9392C56.3073 14.6886 55.5442 16.5872 57.6346 20.5668L58.5386 22.1397C59.5789 23.8128 60.8109 25.456 61.9056 26.7528L60.8588 29.0119L61.5853 29.9318L63.2127 26.5001C62.3821 25.7583 59.8959 22.4153 58.8682 20.5559C56.5322 16.3268 57.4499 14.1516 56.0246 12.2132C54.7044 10.4143 50.9285 11.2639 50.9285 11.2639L52.3211 9.31029L49.9105 9.6044L51.0254 8.2635C51.2629 7.91657 51.3179 7.70634 51.4148 7.37139C51.8881 5.6547 53.1293 3.95271 55.486 3.95271C58.3475 3.95271 59.1655 6.14923 61.1545 7.89805C63.1681 9.67084 67.3901 13.0792 71.2526 17.4869C74.3674 21.0401 78.3596 29.3011 81.4264 35.8215C78.0736 34.1876 72.3953 28.5702 70.0168 24.3618L68.8944 24.2306C71.4481 29.0751 76.9288 34.7159 82.3496 37.7871L83.2014 36.8994Z" fill="white"/>
<path fill-rule="evenodd" clip-rule="evenodd" d="M75.4369 16.6505C76.3306 16.0083 77.3889 15.4849 78.5037 15.0618C79.19 15.8929 80.8075 16.6211 82.0907 16.7921L81.8854 18.1498C80.4622 17.4315 77.9466 16.7 75.4369 16.6505L74.3117 17.6177C77.7167 17.6809 79.8844 18.3704 82.6909 19.5512L83.2481 15.9664C82.1354 15.8139 80.3811 15.4958 79.7738 14.6331C82.3407 13.8516 85.0045 13.5569 86.5774 13.5787V9.16227C85.8754 9.57293 84.9914 9.9569 84.1576 10.2151C83.1375 10.5277 82.21 10.6649 81.9546 10.2151C81.6724 9.72052 83.0798 8.8393 84.5301 8.06864L81.2656 5.3569C80.7711 6.02245 79.6475 7.88456 78.5021 9.11489C77.6884 9.98848 76.8502 10.5614 76.3715 10.2042C76.1204 10.0146 76.1106 9.46781 76.3181 8.77885C76.7152 7.45538 77.7592 5.61724 78.3954 4.80737L73.883 4.38092C73.883 6.22505 73.0171 8.25545 71.9512 9.89644C71.0319 11.3087 69.6981 12.3353 68.63 12.966L69.4982 13.8205C70.8184 12.9028 72.1043 11.7798 73.0988 10.1802C73.8988 8.89431 74.6423 7.33992 74.9211 5.51975L76.4837 5.70111C75.8339 6.89223 75.0998 8.74181 75.0442 9.95145C75.0834 10.7744 75.2419 10.9214 75.6656 11.2346C76.4494 11.8212 77.4199 11.4269 78.3453 10.635C79.3654 9.76409 80.3686 8.30447 81.3865 6.98373L82.7056 8.08389C81.0336 9.11434 80.5603 10.2167 81.0706 10.9476C81.2694 11.2313 81.6991 11.4448 82.2323 11.4606C82.7612 11.4737 83.3875 11.3179 84.0715 11.1551C84.5525 11.0391 85.0737 10.8713 85.5546 10.7237V12.4807C81.7547 12.752 75.2691 14.29 72.8123 17.5644L73.5497 18.6008C73.7627 18.2511 74.0198 17.9244 74.3122 17.6166L75.4369 16.6505ZM25.7471 8.01854L26.2574 8.40196C27.5939 7.31323 29.1559 5.33294 30.0372 3.46811L29.5818 3.14459C28.7295 3.92614 26.6964 6.47395 25.7471 8.01854Z" fill="white"/>
<path fill-rule="evenodd" clip-rule="evenodd" d="M24.9634 6.82686C24.214 4.18157 26.136 2.59777 28.143 2.74482C28.8957 1.29554 30.0759 1.00634 31.3307 1.75848C32.4984 2.46106 32.4009 4.24638 31.4277 5.08294C31.7752 6.67382 30.3629 8.94114 28.1697 8.8284C28.43 11.0244 25.7362 12.2738 24.1034 10.8397C22.7462 9.64916 23.0299 7.66615 24.9634 6.82686ZM24.0348 6.4222C23.3382 6.5747 22.9749 6.92435 22.6645 7.67976C22.8725 5.96198 21.731 4.31555 19.8504 4.4419C20.0344 1.37288 16.9943 -0.454916 14.306 1.03902C12.7178 -0.320935 10.9423 -0.0448048 9.87427 1.22038C8.85363 2.43002 8.88794 4.47077 10.9505 5.56004C10.4293 7.67976 12.3709 9.78641 14.6534 9.29678C14.7847 9.94926 15.2634 10.2989 15.8947 10.5592C14.9454 10.6148 14.556 11.5587 14.556 11.5587C11.5289 10.7831 9.96686 12.795 9.91621 14.9065C7.70717 15.5775 7.08901 18.3388 8.78064 19.9515C10.5295 21.6241 12.6154 20.9378 13.525 19.2277C15.4764 19.9695 17.5651 18.7647 17.6195 16.6085C19.7948 16.8133 20.6286 15.0988 20.426 13.2922L19.7365 13.2367C19.4397 14.9147 18.6424 15.638 16.8222 15.638C16.7432 17.2501 15.0205 18.6493 13.0691 18.2789C12.5217 19.5675 10.9151 19.988 9.81818 18.9101C8.724 17.8318 9.08673 15.8041 11.0175 15.4381C10.9385 13.4605 12.8632 12.2351 15.612 12.3663C16.393 11.3985 17.0242 10.9879 18.1947 11.1012L18.2056 10.5386C17.1087 10.391 15.8723 9.35179 15.7808 8.23474C13.44 8.42101 11.8377 7.07957 11.9172 4.97564C10.4129 4.27089 10.6836 2.72685 11.1705 2.14082C12.0092 1.12834 13.1818 1.20949 14.1295 2.02753C16.8042 1.00471 18.9577 3.11626 18.9577 5.42279C18.9577 5.42279 20.2076 5.39883 20.9097 6.13027C21.8383 7.10081 21.8383 7.945 22.0589 8.88613C22.2669 9.77497 22.7141 10.9563 23.8055 11.8081C25.7357 13.3129 28.7268 12.905 29.0318 9.73086C31.6009 9.95906 33.2898 7.94228 32.4429 5.47562C34.2418 4.19192 33.884 1.54607 32.1929 0.522704C31.8132 0.271989 31.3839 0.106277 30.9342 0.0369132C30.4845 -0.0324503 30.0252 -0.00382607 29.5876 0.120824C29.1501 0.245474 28.7446 0.463207 28.399 0.759117C28.0534 1.05503 27.7758 1.42212 27.5853 1.83528C24.9525 1.23019 22.8066 3.85533 24.0348 6.4222ZM35.9122 21.8C36.1437 20.8741 34.9231 20.7369 34.7549 21.5898C34.5762 22.5026 33.4663 24.0597 32.4146 25.0351L32.7904 25.4403C34.171 24.4088 35.6154 22.9813 35.9122 21.8ZM42.0426 6.50607C42.2433 6.49855 42.4332 6.41355 42.5725 6.26892C42.7118 6.1243 42.7897 5.93131 42.7897 5.73051C42.7897 5.52971 42.7118 5.33672 42.5725 5.1921C42.4332 5.04747 42.2433 4.96247 42.0426 4.95495C41.614 4.95495 41.2698 5.30461 41.2698 5.73051C41.2698 6.15914 41.614 6.50607 42.0426 6.50607ZM53.4625 7.21355C53.4684 6.97353 53.5678 6.7453 53.7397 6.57761C53.9115 6.40991 54.1421 6.31605 54.3822 6.31605C54.6223 6.31605 54.8528 6.40991 55.0247 6.57761C55.1965 6.7453 55.2959 6.97353 55.3018 7.21355C55.3021 7.33456 55.2786 7.45446 55.2326 7.56637C55.1866 7.67829 55.1189 7.78003 55.0335 7.86577C54.9482 7.95152 54.8467 8.01958 54.735 8.06607C54.6232 8.11256 54.5034 8.13657 54.3824 8.13671C53.8759 8.13671 53.4625 7.72388 53.4625 7.21355ZM52.0051 23.759C46.0196 23.2994 40.0602 23.6752 40.0602 23.6752L40.4801 22.5783C46.2031 22.1627 52.0895 22.5783 52.0895 22.5783L52.0051 23.759Z" fill="white"/>
<path fill-rule="evenodd" clip-rule="evenodd" d="M15.8341 27.9256C15.8341 27.9256 16.1734 28.3788 16.7023 28.9414C16.8814 29.1941 17.078 29.3749 17.3275 29.6096C18.4249 30.6799 20.0392 31.4821 21.7042 31.8029C22.1775 31.8933 22.5985 31.9636 23.0669 31.9636C23.7771 31.9636 24.4312 31.5823 24.8495 31.2081L24.1975 30.4478C23.9873 30.5105 23.5505 30.5105 23.2613 30.5105C20.8469 30.5105 17.7834 28.9305 17.078 27.0994C17.0067 26.9208 16.9228 26.8211 16.9942 26.6523C17.0623 26.484 17.1521 26.1294 17.2017 25.8032C17.3438 25.966 17.6352 26.2106 18.0061 26.4497C18.9058 27.0259 20.6155 27.8227 20.9493 28.0362C21.6498 27.8358 22.3282 27.5652 22.9743 27.2285C23.4764 26.9682 24.1632 26.734 24.9573 26.734C26.7219 26.734 28.7496 27.7383 30.6542 28.6772L31.9559 28.1669C30.2648 26.9758 26.5885 25.3108 24.5423 25.3108C23.3375 25.3108 22.2036 26.1948 21.397 26.1948C20.4052 26.1948 17.565 24.8087 17.565 23.6541C17.565 22.7652 19.4031 22.2598 22.3588 21.8965C21.8432 22.657 21.3599 23.4389 20.9101 24.2401L21.6622 24.6584C26.2911 17.9435 31.1041 13.5837 35.1545 10.9297C36.6272 9.96409 36.9616 9.39931 37.4741 8.34435C38.729 5.77748 39.9124 3.80209 41.9717 3.80209C42.9314 3.80209 43.7178 4.344 44.2575 5.01227L45.746 5.45941L44.2385 6.48224L45.7803 7.09768C43.7679 7.66301 41.0197 9.62261 39.9048 12.4972C37.7611 12.6105 36.7274 14.349 36.0281 15.8059C35.5543 16.7873 34.8027 17.1789 33.7058 17.9234L24.9399 24.0435L26.1468 24.2118L34.2444 18.7779C35.844 17.7001 36.6011 16.9055 36.9856 16.137C37.735 14.6327 38.5454 13.5151 40.1341 13.5151C40.9151 13.5151 41.7484 13.849 42.4167 14.4829L43.8393 14.9459L42.2876 15.8952L43.5893 16.698C39.8705 17.8635 37.5689 20.53 36.2329 25.6267L37.2165 25.8478C37.7083 24.1622 38.1974 22.6133 39.0677 21.2451C41.219 21.2217 43.4003 21.1427 45.538 21.1427C51.2452 21.1427 55.9841 21.3846 58.5406 22.1394L57.6365 20.5665C54.9019 20.0981 50.9326 19.859 45.5385 19.859C43.732 19.859 41.8982 19.9244 40.0786 19.9456C41.2544 18.7017 42.9428 17.6522 45.5467 16.845L43.7004 15.8271L45.7515 14.6855L42.9559 13.6437C42.4668 13.2047 41.859 12.8022 41.0943 12.6072C41.9908 9.85353 45.0391 8.24413 47.9638 7.13417L45.9154 6.29488L47.9796 5.16422L44.8 4.14848C43.9689 3.17031 43.1721 2.72534 41.9461 2.72534C38.9953 2.72534 37.7541 5.28949 36.5864 7.56225C35.9682 8.76154 35.5815 9.26642 34.5347 9.95048C32.2647 11.4362 29.3743 13.7085 26.6135 16.6201C25.1719 15.5793 22.2232 12.5326 21.427 10.8709C21.1111 11.2625 20.7985 12.1154 20.7985 12.1154C21.1013 12.4329 24.5701 15.9442 25.8608 17.4327C25.7634 17.5405 25.667 17.6484 25.5695 17.7589C24.1937 18.0323 20.6225 18.3771 19.4069 18.2115L18.7234 19.4244C19.6302 19.3351 23.1812 18.9163 24.6539 18.8297C24.2025 19.378 23.7649 19.9375 23.3414 20.5077C18.7784 21.0284 15.7274 21.9646 15.7274 23.6535C15.7274 23.9324 15.8401 24.2477 15.8401 24.5445C15.8401 25.252 15.5743 25.5129 15.0722 25.8282C14.7459 26.0363 14.7247 26.1784 14.8647 26.3729C15.6217 27.5961 13.2705 28.2034 14.9088 30.3917L16.2976 30.4756C16.297 30.4762 14.9425 29.6881 15.8341 27.9256ZM14.0341 3.63053L13.582 4.09347C14.2318 5.02207 17.1091 7.59983 18.5682 8.5573L19.1046 7.89175C18.1477 6.76599 15.4278 4.33855 14.0341 3.63053ZM12.0483 16.6239L12.4742 17.089C13.5711 16.558 15.6326 15.0325 16.748 13.8887L16.4408 13.4334C15.1304 13.9808 13.1055 15.4796 12.0483 16.6239Z" fill="white"/>
<path fill-rule="evenodd" clip-rule="evenodd" d="M75.5904 35.6285C75.5907 35.438 75.5533 35.2495 75.4806 35.0735C75.4079 34.8975 75.3013 34.7375 75.1667 34.6028C75.0322 34.4681 74.8724 34.3611 74.6965 34.2882C74.5207 34.2152 74.3321 34.1776 74.1417 34.1775L71.9964 34.1765C71.8057 34.1768 71.6169 34.2147 71.4409 34.2881C71.2649 34.3614 71.105 34.4687 70.9705 34.6039C70.8359 34.739 70.7293 34.8994 70.6568 35.0757C70.5842 35.2521 70.5472 35.441 70.5477 35.6317L70.5487 58.0734C70.5483 58.264 70.5855 58.4527 70.6581 58.6288C70.7307 58.805 70.8373 58.9651 70.9719 59.1C71.1065 59.2348 71.2663 59.3418 71.4423 59.4148C71.6183 59.4879 71.807 59.5254 71.9975 59.5254H74.1428C74.3333 59.525 74.5219 59.4871 74.6978 59.4137C74.8737 59.3404 75.0334 59.2332 75.1678 59.0982C75.3022 58.9631 75.4087 58.8029 75.4812 58.6267C75.5538 58.4505 75.5909 58.2618 75.5904 58.0713V35.6285ZM78.3251 36.2254V37.2923C78.3254 37.3975 78.3465 37.5015 78.387 37.5985C78.4276 37.6955 78.4869 37.7835 78.5615 37.8576C78.6361 37.9317 78.7245 37.9904 78.8218 38.0303C78.9191 38.0702 79.0233 38.0906 79.1284 38.0902H93.9327C94.6069 38.0902 95.1548 37.5456 95.1548 36.8702V35.0631C95.1548 34.3889 94.6004 33.7772 93.9294 33.8431C93.9294 33.8431 79.6202 35.2472 79.1583 35.2995C78.6251 35.3583 78.3251 35.7837 78.3251 36.2254ZM66.3409 59.5265C62.6581 59.5265 60.3401 56.7342 60.3401 53.6248L60.3368 44.646H59.2824C59.1489 44.6462 59.0167 44.6201 58.8933 44.5691C58.7699 44.5182 58.6578 44.4434 58.5633 44.349C58.4689 44.2547 58.3939 44.1426 58.3429 44.0193C58.2918 43.8959 58.2655 43.7637 58.2656 43.6302V42.127C58.2656 41.5655 58.7231 41.1146 59.2835 41.1146L60.3368 41.1157L60.3347 35.5947C60.3343 35.409 60.3706 35.225 60.4414 35.0533C60.5123 34.8816 60.6163 34.7256 60.7475 34.5941C60.8787 34.4627 61.0346 34.3584 61.2062 34.2873C61.3778 34.2162 61.5617 34.1797 61.7474 34.1797H63.8399C64.2153 34.1809 64.5749 34.3309 64.8398 34.5969C65.1046 34.8629 65.2531 35.2231 65.2527 35.5985L65.2538 41.1151H68.5162C69.0788 41.1151 69.5363 41.5672 69.5363 42.1287V43.6319C69.5362 43.7652 69.5098 43.8973 69.4587 44.0204C69.4075 44.1436 69.3325 44.2554 69.2381 44.3496C69.1436 44.4437 69.0315 44.5183 68.9082 44.5691C68.7849 44.6199 68.6528 44.6458 68.5194 44.6454H65.2538L65.256 52.9511C65.256 54.5818 66.2439 55.6945 68.0113 55.6945L68.3081 55.6923C68.9176 55.6923 69.4132 56.1835 69.4132 56.793V58.4247C69.4132 58.5696 69.3847 58.713 69.3292 58.8468C69.2737 58.9806 69.1924 59.1021 69.0898 59.2044C68.9872 59.3066 68.8655 59.3876 68.7315 59.4427C68.5976 59.4978 68.454 59.5259 68.3092 59.5254H66.3409V59.5265ZM31.8524 40.4686C25.899 40.4686 22.5598 45.128 22.5598 50.0368C22.5598 55.268 26.1364 59.8751 31.8911 59.8751C35.8299 59.8751 39.7126 57.7995 40.4462 54.3906C40.5453 53.9309 40.2354 53.328 39.5873 53.3258H36.7732C36.2623 53.3258 35.8446 53.5704 35.5929 53.9397C34.788 55.1204 33.6077 55.7489 31.8633 55.7489C29.3983 55.7489 27.6892 53.8068 27.5607 51.6527H39.5301C40.6325 51.6527 41.1248 51.0547 41.1248 50.0357C41.1259 45.2489 38.2922 40.4686 31.8524 40.4686ZM31.8524 44.311C34.05 44.311 35.947 45.8747 36.1392 47.9906H27.5982C27.7899 45.8747 29.6548 44.311 31.8524 44.311ZM86.3933 40.4686C80.4404 40.4686 77.1013 45.128 77.1013 50.0368C77.1013 55.268 80.6784 59.8751 86.4325 59.8751C90.3713 59.8751 94.254 57.7995 94.9882 54.3906C95.0873 53.9309 94.7774 53.328 94.1298 53.3258H91.3152C90.8043 53.3258 90.3866 53.5704 90.1344 53.9397C89.33 55.1204 88.1492 55.7489 86.4047 55.7489C83.9403 55.7489 82.2317 53.8068 82.1021 51.6527H94.0726C95.1744 51.6527 95.6673 51.0547 95.6673 50.0357C95.6673 45.2489 92.8336 40.4686 86.3933 40.4686ZM86.3933 44.311C88.592 44.311 90.4889 45.8747 90.6812 47.9906H82.1391C82.3309 45.8747 84.1957 44.311 86.3933 44.311Z" fill="white"/>
<path fill-rule="evenodd" clip-rule="evenodd" d="M56.311 34.4295H17.54C17.3306 34.4295 17.1232 34.4708 16.9297 34.551C16.7363 34.6312 16.5605 34.7488 16.4126 34.897C16.2646 35.0453 16.1473 35.2212 16.0674 35.4148C15.9875 35.6084 15.9466 35.8158 15.9469 36.0253L16.0804 51.2527C16.0804 51.2527 7.72566 36.1625 7.28995 35.3924C6.88093 34.668 6.00134 34.0009 4.78408 34.0009H1.59578C1.38613 34.0009 1.17853 34.0422 0.984851 34.1224C0.791171 34.2027 0.615205 34.3203 0.467009 34.4686C0.318812 34.6169 0.201291 34.793 0.121159 34.9867C0.0410276 35.1804 -0.000142736 35.3881 3.71801e-07 35.5977L0.00163416 57.9289C0.00149107 58.1384 0.0426256 58.346 0.122689 58.5396C0.202752 58.7333 0.320177 58.9093 0.468258 59.0576C0.616339 59.2059 0.792176 59.3235 0.98573 59.4039C1.17928 59.4842 1.38677 59.5256 1.59633 59.5257H3.64143C4.065 59.5247 4.47083 59.3555 4.76967 59.0554C5.06851 58.7552 5.2359 58.3486 5.23504 57.9251L5.1065 42.2711C5.1065 42.2711 13.5418 57.5122 13.9029 58.1124C14.3893 58.9239 15.2128 59.5263 16.4066 59.5263H19.3356C19.5452 59.5261 19.7526 59.4847 19.9462 59.4044C20.1397 59.3241 20.3155 59.2064 20.4635 59.0581C20.6116 58.9098 20.7289 58.7338 20.8089 58.5401C20.8889 58.3465 20.93 58.139 20.9298 57.9294L20.9287 38.2142L56.3131 38.2152C56.4562 38.2157 56.598 38.1879 56.7303 38.1335C56.8627 38.079 56.9829 37.999 57.0843 37.8981C57.1857 37.7971 57.2662 37.6771 57.3211 37.545C57.3761 37.4129 57.4044 37.2712 57.4046 37.1282V35.5177C57.4037 35.2284 57.2881 34.9513 57.083 34.7472C56.8779 34.5432 56.6002 34.4289 56.311 34.4295Z" fill="white"/>
<path fill-rule="evenodd" clip-rule="evenodd" d="M50.0361 44.1247C51.7223 44.1247 52.9826 44.7364 53.4368 45.7924C53.6547 46.3 54.0773 46.3975 54.6579 46.3975H56.9759C57.3587 46.3975 57.7993 46.068 57.7993 45.5669C57.7993 42.8726 54.586 40.4664 50.0328 40.4664C45.3256 40.4664 42.2337 42.7087 42.2337 46.282C42.2337 49.015 44.3937 50.6413 47.0488 51.3357C48.259 51.6516 50.3253 52.1625 51.3312 52.4272C52.4162 52.7109 53.3862 53.0432 53.3862 53.9718C53.3862 55.4385 51.8405 55.9374 50.1521 55.9374C48.5525 55.9374 46.9595 55.2233 46.5025 54.0823C46.2384 53.4217 45.7749 53.3258 45.0723 53.3258H42.7146C42.3034 53.3258 41.8301 53.6787 41.8301 54.2152V54.5197C41.8301 57.1279 45.3294 59.8598 50.1565 59.8598C53.5795 59.8598 58.3483 58.4367 58.3483 53.8465C58.3483 51.1881 56.5696 49.3478 53.6754 48.612C52.5436 48.325 49.8226 47.6333 49.2306 47.4802C48.1756 47.2068 47.1909 46.8632 47.1909 45.9591C47.1915 44.5893 48.4572 44.1247 50.0361 44.1247Z" fill="white"/>
<path fill-rule="evenodd" clip-rule="evenodd" d="M75.5906 35.6285C75.5908 35.438 75.5535 35.2495 75.4808 35.0735C75.4081 34.8975 75.3014 34.7375 75.1669 34.6028C75.0324 34.4681 74.8726 34.3611 74.6967 34.2882C74.5208 34.2152 74.3323 34.1776 74.1419 34.1775L71.9966 34.1765C71.8059 34.1768 71.6171 34.2147 71.4411 34.2881C71.265 34.3614 71.1052 34.4687 70.9706 34.6039C70.8361 34.739 70.7295 34.8994 70.657 35.0757C70.5844 35.2521 70.5473 35.441 70.5478 35.6317L70.5489 58.0734C70.5485 58.264 70.5857 58.4527 70.6583 58.6288C70.7309 58.805 70.8375 58.9651 70.9721 59.1C71.1067 59.2348 71.2665 59.3418 71.4425 59.4148C71.6185 59.4879 71.8071 59.5254 71.9977 59.5254H74.143C74.3335 59.525 74.5221 59.4871 74.698 59.4137C74.8738 59.3404 75.0335 59.2332 75.168 59.0982C75.3024 58.9631 75.4089 58.8029 75.4814 58.6267C75.554 58.4505 75.5911 58.2618 75.5906 58.0713V35.6285ZM78.3252 36.2254V37.2923C78.3256 37.3975 78.3467 37.5015 78.3872 37.5985C78.4278 37.6955 78.4871 37.7835 78.5617 37.8576C78.6363 37.9317 78.7247 37.9904 78.822 38.0303C78.9193 38.0702 79.0234 38.0906 79.1286 38.0902H93.9329C94.6071 38.0902 95.155 37.5456 95.155 36.8702V35.0631C95.155 34.3889 94.6006 33.7772 93.9296 33.8431C93.9296 33.8431 79.6204 35.2472 79.1585 35.2995C78.6253 35.3583 78.3252 35.7837 78.3252 36.2254ZM66.3411 59.5265C62.6583 59.5265 60.3403 56.7342 60.3403 53.6248L60.337 44.646H59.2826C59.1491 44.6462 59.0169 44.6201 58.8935 44.5691C58.7701 44.5182 58.6579 44.4434 58.5635 44.349C58.469 44.2547 58.3941 44.1426 58.343 44.0193C58.292 43.8959 58.2657 43.7637 58.2658 43.6302V42.127C58.2658 41.5655 58.7233 41.1146 59.2837 41.1146L60.337 41.1157L60.3348 35.5947C60.3345 35.409 60.3708 35.225 60.4416 35.0533C60.5125 34.8816 60.6165 34.7256 60.7477 34.5941C60.8789 34.4627 61.0348 34.3584 61.2064 34.2873C61.378 34.2162 61.5619 34.1797 61.7476 34.1797H63.8401C64.2155 34.1809 64.5751 34.3309 64.8399 34.5969C65.1048 34.8629 65.2533 35.2231 65.2529 35.5985L65.254 41.1151H68.5164C69.079 41.1151 69.5365 41.5672 69.5365 42.1287V43.6319C69.5364 43.7652 69.51 43.8973 69.4588 44.0204C69.4077 44.1436 69.3327 44.2554 69.2383 44.3496C69.1438 44.4437 69.0317 44.5183 68.9084 44.5691C68.7851 44.6199 68.653 44.6458 68.5196 44.6454H65.254L65.2562 52.9511C65.2562 54.5818 66.2441 55.6945 68.0115 55.6945L68.3083 55.6923C68.9178 55.6923 69.4134 56.1835 69.4134 56.793V58.4247C69.4134 58.5696 69.3849 58.713 69.3294 58.8468C69.2739 58.9806 69.1926 59.1021 69.09 59.2044C68.9874 59.3066 68.8657 59.3876 68.7317 59.4427C68.5978 59.4978 68.4542 59.5259 68.3094 59.5254H66.3411V59.5265ZM41.1261 50.0357C41.1261 45.2489 38.2923 40.4686 31.8531 40.4686C25.8997 40.4686 22.5605 45.128 22.5605 50.0368C22.5605 55.268 26.1372 59.8751 31.8918 59.8751C35.8306 59.8751 39.7133 57.7995 40.4469 54.3906C40.546 53.9309 40.2362 53.328 39.588 53.3258H36.7739C36.263 53.3258 35.8453 53.5704 35.5937 53.9397C34.7887 55.1204 33.6085 55.7489 31.864 55.7489C29.399 55.7489 27.6899 53.8068 27.5614 51.6527H39.5308C40.6332 51.6527 41.1261 51.0547 41.1261 50.0357ZM27.5984 47.9901C27.7907 45.8741 29.655 44.3105 31.8531 44.3105C34.0507 44.3105 35.9477 45.8741 36.1399 47.9901H27.5984ZM95.6675 50.0357C95.6675 45.2489 92.8338 40.4686 86.394 40.4686C80.4412 40.4686 77.102 45.128 77.102 50.0368C77.102 55.268 80.6792 59.8751 86.4332 59.8751C90.372 59.8751 94.2547 57.7995 94.9889 54.3906C95.088 53.9309 94.7781 53.328 94.1306 53.3258H91.3159C90.805 53.3258 90.3873 53.5704 90.1351 53.9397C89.3307 55.1204 88.1499 55.7489 86.4055 55.7489C83.941 55.7489 82.2325 53.8068 82.1028 51.6527H94.0734C95.1746 51.6527 95.6675 51.0547 95.6675 50.0357ZM82.1399 47.9901C82.3316 45.8741 84.1959 44.3105 86.394 44.3105C88.5927 44.3105 90.4897 45.8741 90.6819 47.9901H82.1399Z" fill="white"/>
<path fill-rule="evenodd" clip-rule="evenodd" d="M56.311 34.4295H17.54C17.3306 34.4295 17.1232 34.4708 16.9297 34.551C16.7363 34.6312 16.5605 34.7488 16.4126 34.897C16.2646 35.0453 16.1473 35.2212 16.0674 35.4148C15.9875 35.6084 15.9466 35.8158 15.9469 36.0253L16.0804 51.2527C16.0804 51.2527 7.72566 36.1625 7.28995 35.3924C6.88093 34.668 6.00134 34.0009 4.78408 34.0009H1.59578C1.38613 34.0009 1.17853 34.0422 0.984851 34.1224C0.791171 34.2027 0.615205 34.3203 0.467009 34.4686C0.318812 34.6169 0.201291 34.793 0.121159 34.9867C0.0410276 35.1804 -0.000142736 35.3881 3.71801e-07 35.5977L0.00163416 57.9289C0.00149107 58.1384 0.0426256 58.346 0.122689 58.5396C0.202752 58.7333 0.320177 58.9093 0.468258 59.0576C0.616339 59.2059 0.792176 59.3235 0.98573 59.4039C1.17928 59.4842 1.38677 59.5256 1.59633 59.5257H3.64143C4.065 59.5247 4.47083 59.3555 4.76967 59.0554C5.06851 58.7552 5.2359 58.3486 5.23504 57.9251L5.1065 42.2711C5.1065 42.2711 13.5418 57.5122 13.9029 58.1124C14.3893 58.9239 15.2128 59.5263 16.4066 59.5263H19.3356C19.5452 59.5261 19.7526 59.4847 19.9462 59.4044C20.1397 59.3241 20.3155 59.2064 20.4635 59.0581C20.6116 58.9098 20.7289 58.7338 20.8089 58.5401C20.8889 58.3465 20.93 58.139 20.9298 57.9294L20.9287 38.2142L56.3131 38.2152C56.4562 38.2157 56.598 38.1879 56.7303 38.1335C56.8627 38.079 56.9829 37.999 57.0843 37.8981C57.1857 37.7971 57.2662 37.6771 57.3211 37.545C57.3761 37.4129 57.4044 37.2712 57.4046 37.1282V35.5177C57.4037 35.2284 57.2881 34.9513 57.083 34.7472C56.8779 34.5432 56.6002 34.4289 56.311 34.4295Z" fill="white"/>
<path fill-rule="evenodd" clip-rule="evenodd" d="M50.0361 44.1247C51.7223 44.1247 52.9826 44.7364 53.4368 45.7924C53.6547 46.3 54.0773 46.3975 54.6579 46.3975H56.9759C57.3587 46.3975 57.7993 46.068 57.7993 45.5669C57.7993 42.8726 54.586 40.4664 50.0328 40.4664C45.3256 40.4664 42.2337 42.7087 42.2337 46.282C42.2337 49.015 44.3937 50.6413 47.0488 51.3357C48.259 51.6516 50.3253 52.1625 51.3312 52.4272C52.4162 52.7109 53.3862 53.0432 53.3862 53.9718C53.3862 55.4385 51.8405 55.9374 50.1521 55.9374C48.5525 55.9374 46.9595 55.2233 46.5025 54.0823C46.2384 53.4217 45.7749 53.3258 45.0723 53.3258H42.7146C42.3034 53.3258 41.8301 53.6787 41.8301 54.2152V54.5197C41.8301 57.1279 45.3294 59.8598 50.1565 59.8598C53.5795 59.8598 58.3483 58.4367 58.3483 53.8465C58.3483 51.1881 56.5695 49.3478 53.6754 48.612C52.5436 48.325 49.8226 47.6333 49.2306 47.4802C48.1756 47.2068 47.1909 46.8632 47.1909 45.9591C47.1915 44.5893 48.4572 44.1247 50.0361 44.1247ZM97.3301 58.5832H96.8045V56.1258H97.7228C98.3567 56.1258 98.7314 56.3066 98.7314 56.8681C98.7314 57.3202 98.4656 57.4841 98.1399 57.5086L98.7674 58.5832H98.1449L97.5779 57.5506H97.3301V58.5832ZM97.7947 57.1345C98.031 57.1345 98.1694 57.0854 98.1694 56.8131C98.1694 56.5599 97.897 56.5419 97.6993 56.5419H97.3301V57.1345H97.7947ZM97.7097 59.6392C96.4968 59.6392 95.4151 58.7999 95.4151 57.3567C95.4151 55.9145 96.4968 55.0752 97.7097 55.0752C98.9182 55.0752 99.9999 55.9145 99.9999 57.3567C99.9999 58.7999 98.9182 59.6392 97.7097 59.6392ZM97.7097 55.6057C96.8045 55.6057 96.0736 56.3066 96.0736 57.3567C96.0736 58.4078 96.8045 59.1153 97.7097 59.1088V59.1153C98.5925 59.1153 99.3403 58.4078 99.3403 57.3567C99.3403 56.3066 98.5925 55.6057 97.7097 55.6057Z" fill="white"/>
</svg>
