<?xml version="1.0" encoding="UTF-8"?>
<svg version="1.1" xmlns="http://www.w3.org/2000/svg" width="500" height="500">
<path d="M0 0 C0.73390373 -0.00495952 1.46780745 -0.00991903 2.22395068 -0.01502883 C4.68462349 -0.02798836 7.14475396 -0.01959931 9.60544014 -0.01129913 C11.3868346 -0.01618787 13.16822589 -0.02237759 14.94961178 -0.02975702 C19.84613823 -0.04618182 24.74250395 -0.04383344 29.63904834 -0.03838205 C34.919329 -0.035715 40.19956651 -0.05023755 45.47982979 -0.06247711 C55.82498495 -0.08354688 66.17008409 -0.08807108 76.51525818 -0.08628923 C84.92275827 -0.0849824 93.33024086 -0.08878169 101.73773766 -0.09621429 C104.15807855 -0.09831345 106.57841945 -0.10041105 108.99876034 -0.10250711 C110.8056794 -0.10407241 110.8056794 -0.10407241 112.64910187 -0.10566932 C135.43914285 -0.12457787 158.22915166 -0.12351958 181.01919724 -0.11669999 C201.87447612 -0.11112384 222.72963219 -0.13195199 243.58488236 -0.16506046 C264.99207646 -0.19878177 286.39921169 -0.21396775 307.80643284 -0.20934343 C319.82775658 -0.2070972 331.84896679 -0.2123645 343.87026787 -0.23723602 C354.10415925 -0.25822894 364.33787485 -0.26186102 374.57177339 -0.24293643 C379.79406108 -0.23376634 385.01602084 -0.23267471 390.23828316 -0.25329208 C395.0189284 -0.27195738 399.79897614 -0.26754848 404.57959832 -0.24474627 C406.30902582 -0.24054928 408.03849873 -0.24479735 409.76787828 -0.25834221 C420.30998965 -0.3352871 427.12776637 0.28675229 435.03344917 7.73467255 C435.67411324 8.48490692 436.3147773 9.2351413 436.97485542 10.00811005 C437.63356636 10.76350067 438.2922773 11.5188913 438.97094917 12.29717255 C441.91687177 16.22017172 441.6650669 19.7211261 441.6715765 24.47940445 C441.67392873 25.21014624 441.67628096 25.94088803 441.67870447 26.69377351 C441.68540291 29.16158386 441.68493599 31.62934165 441.68452644 34.09716034 C441.68782454 35.87667523 441.69154999 37.65618938 441.69566792 39.43570256 C441.70570213 44.34089123 441.70940699 49.24606766 441.71205723 54.15126514 C441.71595603 59.43565455 441.72553461 64.72003422 441.7342701 70.00441742 C441.75404567 82.77305348 441.76410173 95.54169035 441.77299789 108.3103379 C441.77737867 114.31949215 441.78274599 120.32864552 441.78798676 126.33779907 C441.80499951 146.30660952 441.81949475 166.27541941 441.8267355 186.24423599 C441.82864547 191.42789714 441.83056579 196.61155829 441.83252144 201.79521942 C441.83300518 203.08363233 441.83348892 204.37204523 441.83398732 205.69950095 C441.84229163 226.58148912 441.86763513 247.46342008 441.90010212 268.34538326 C441.93314458 289.77167832 441.95118168 311.19794427 441.95437974 332.62426496 C441.95654735 344.65956497 441.96533286 356.69478154 441.99084091 368.73005676 C442.01250943 378.97756224 442.02061729 389.22496401 442.01087413 399.4724898 C442.00631837 404.70269714 442.00828968 409.93269031 442.02763557 415.1628685 C442.04518887 419.94966504 442.04433345 424.73608994 442.02873828 429.52289 C442.02635027 431.25575773 442.03074721 432.98865068 442.04256693 434.72147974 C442.0576336 437.0759231 442.04805083 439.42904071 442.03234005 441.78345108 C442.03331686 443.09148028 442.03429367 444.39950948 442.03530008 445.74717593 C441.23638098 451.58079051 438.35662132 455.99791832 434.16235542 460.13311005 C433.61837105 460.6848288 433.07438667 461.23654755 432.51391792 461.80498505 C427.56880825 465.75325443 423.33518099 466.7586866 417.07471085 466.76622009 C416.34080712 466.77117961 415.60690339 466.77613912 414.85076016 466.78124893 C412.39008736 466.79420846 409.92995688 466.7858194 407.46927071 466.77751923 C405.68787624 466.78240796 403.90648495 466.78859769 402.12509906 466.79597712 C397.22857261 466.81240192 392.3322069 466.81005353 387.43566251 466.80460215 C382.15538184 466.80193509 376.87514434 466.81645764 371.59488106 466.8286972 C361.24972589 466.84976697 350.90462675 466.85429117 340.55945267 466.85250932 C332.15195258 466.85120249 323.74446999 466.85500178 315.33697319 466.86243439 C312.9166323 466.86453355 310.4962914 466.86663115 308.0759505 466.86872721 C306.8713378 466.86977073 305.6667251 466.87081426 304.42560898 466.87188941 C281.63556799 466.89079796 258.84555919 466.88973967 236.05551361 466.88292009 C215.20023472 466.87734393 194.34507866 466.89817208 173.48982848 466.93128055 C152.08263439 466.96500186 130.67549916 466.98018784 109.268278 466.97556353 C97.24695427 466.97331729 85.22574405 466.97858459 73.20444298 467.00345612 C62.9705516 467.02444903 52.736836 467.02808112 42.50293745 467.00915653 C37.28064977 466.99998643 32.05869 466.9988948 26.83642769 467.01951218 C22.05578245 467.03817747 17.2757347 467.03376857 12.49511252 467.01096636 C10.76568503 467.00676937 9.03621211 467.01101744 7.30683257 467.0245623 C-3.2352788 467.10150719 -10.05305553 466.47946781 -17.95873833 459.03154755 C-18.59940239 458.28131317 -19.24006645 457.5310788 -19.90014458 456.75811005 C-20.55885551 456.00271942 -21.21756645 455.2473288 -21.89623833 454.46904755 C-24.84216092 450.54604838 -24.59035606 447.04509399 -24.59686565 442.28681564 C-24.59921788 441.55607385 -24.60157011 440.82533206 -24.60399362 440.07244658 C-24.61069206 437.60463624 -24.61022515 435.13687844 -24.6098156 432.66905975 C-24.61311369 430.88954486 -24.61683914 429.11003072 -24.62095708 427.33051753 C-24.63099128 422.42532886 -24.63469615 417.52015243 -24.63734639 412.61495495 C-24.64124519 407.33056555 -24.65082376 402.04618588 -24.65955925 396.76180267 C-24.67933483 383.99316661 -24.68939089 371.22452974 -24.69828704 358.45588219 C-24.70266782 352.44672794 -24.70803514 346.43757457 -24.71327591 340.42842102 C-24.73028866 320.45961057 -24.74478391 300.49080068 -24.75202465 280.5219841 C-24.75393462 275.33832295 -24.75585494 270.1546618 -24.75781059 264.97100067 C-24.75829433 263.68258777 -24.75877807 262.39417486 -24.75927647 261.06671914 C-24.76758079 240.18473097 -24.79292428 219.30280001 -24.82539127 198.42083684 C-24.85843374 176.99454177 -24.87647083 155.56827582 -24.87966889 134.14195514 C-24.88183651 122.10665512 -24.89062201 110.07143856 -24.91613007 98.03616333 C-24.93779858 87.78865785 -24.94590644 77.54125608 -24.93616328 67.29373029 C-24.93160753 62.06352296 -24.93357884 56.83352978 -24.95292473 51.60335159 C-24.97047803 46.81655505 -24.9696226 42.03013015 -24.95402744 37.24333009 C-24.95163943 35.51046236 -24.95603637 33.77756942 -24.96785609 32.04474035 C-24.98292275 29.690297 -24.97333999 27.33717939 -24.9576292 24.98276901 C-24.95860601 23.67473981 -24.95958282 22.36671061 -24.96058923 21.01904416 C-24.16167014 15.18542958 -21.28191047 10.76830178 -17.08764458 6.63311005 C-16.5436602 6.0813913 -15.99967583 5.52967255 -15.43920708 4.96123505 C-10.4940974 1.01296566 -6.26047015 0.00753349 0 0 Z " fill="#FEFEFE" transform="translate(41.46264457702637,16.61688995361328)"/>
<path d="M0 0 C2.93261131 -0.04197132 5.84602834 0.06660611 8.77563477 0.19042969 C10.33498074 0.21283639 11.89441172 0.2299061 13.45387268 0.24188232 C17.54150269 0.28751593 21.6239429 0.40518578 25.70953369 0.53833008 C29.88514985 0.66151599 34.06161259 0.7159815 38.23852539 0.77636719 C46.42123535 0.90473088 54.59974123 1.10926943 62.77954102 1.36230469 C64.70314069 4.70432194 66.62255085 8.04872754 68.54125977 11.39355469 C69.08165894 12.33231445 69.62205811 13.27107422 70.17883301 14.23828125 C73.83993396 20.62674214 77.25652812 27.07745614 80.47094727 33.70214844 C83.56094791 39.99184546 86.80502557 46.20338666 90.02954102 52.42480469 C90.3538913 53.05092651 90.67824158 53.67704834 91.01242065 54.32214355 C97.24340954 66.34839865 103.49168387 78.36567343 109.77954102 90.36230469 C110.36977051 91.48886475 110.36977051 91.48886475 110.97192383 92.63818359 C115.00150119 100.31880226 119.09809946 107.95835207 123.27124023 115.56201172 C127.50373747 123.27576095 131.6718183 130.9967975 135.56103516 138.8894043 C138.88891367 145.62888686 142.32558589 152.31170705 145.77954102 158.98730469 C146.08641846 159.58051514 146.3932959 160.17372559 146.70947266 160.78491211 C150.63592433 168.36276664 154.68349901 175.82274559 158.99047852 183.19042969 C161.4159324 187.49057936 163.59642446 191.89678025 165.77661133 196.32495117 C168.0670079 200.96924158 170.44908447 205.5532584 172.90454102 210.11230469 C175.22003953 214.41465389 177.48879734 218.73214894 179.65454102 223.11230469 C182.52053613 228.89793655 185.523171 234.60525516 188.54248047 240.31176758 C191.12716483 245.20388312 193.68613504 250.10820039 196.22094727 255.02636719 C201.64149659 265.54268845 207.05771461 276.03706578 212.92016602 286.31494141 C220.77954102 300.10285457 220.77954102 300.10285457 220.77954102 304.36230469 C212.40850778 304.57116742 204.03856871 304.73090765 195.66557121 304.82861423 C191.77716709 304.87551897 187.89054953 304.9390869 184.00317383 305.04125977 C180.24881697 305.13931483 176.49617367 305.19291286 172.74063492 305.21619987 C171.31070088 305.23278495 169.88085714 305.26517728 168.45165634 305.3138752 C157.27244437 305.67951475 157.27244437 305.67951475 153.61621094 302.4535675 C152.04620163 300.14226904 150.8910932 297.92118666 149.77954102 295.36230469 C148.98116417 293.88998759 148.17512068 292.42177184 147.35766602 290.95996094 C146.57721883 289.45051189 145.80131028 287.93870906 145.02954102 286.42480469 C141.74287223 280.08107347 138.39428957 273.78424432 134.90454102 267.54980469 C131.25792358 261.03068009 127.6588109 254.487968 124.09204102 247.92480469 C118.9302126 238.43278043 113.68647024 228.98784236 108.42626953 219.55004883 C103.68756142 211.03346826 99.04528017 202.46808567 94.42797852 193.88525391 C90.57479394 186.75375504 86.55358083 179.73492975 82.45263672 172.74365234 C79.53264041 167.74087278 76.89012711 162.66508287 74.36938477 157.44824219 C71.93817863 152.72919342 69.18259637 148.20972922 66.45996094 143.65454102 C63.43530431 138.56306431 60.72120444 133.38512103 58.13891602 128.05371094 C56.79971474 125.40224635 55.3350302 122.89197911 53.77954102 120.36230469 C51.67470443 116.93380799 49.79687422 113.47640181 48.02954102 109.86230469 C44.34076945 102.3502751 40.23090468 95.08463591 36.13793945 87.78808594 C33.79874279 83.61082892 31.47769776 79.4234962 29.15454102 75.23730469 C28.30826616 73.71382313 27.46191955 72.19038143 26.61547852 70.66699219 C25.70668945 69.03117187 25.70668945 69.03117187 24.77954102 67.36230469 C20.46423088 74.05510644 16.66095285 80.96805371 12.90454102 87.98730469 C12.2803125 89.14939453 11.65608398 90.31148438 11.01293945 91.50878906 C7.38324112 98.28954418 3.8709983 105.10479944 0.48657227 112.01074219 C-2.07109448 117.03243113 -4.84638332 121.92832136 -7.60473633 126.84179688 C-9.86926649 130.88849246 -12.05942541 134.94414157 -14.09545898 139.11230469 C-17.88760985 146.85820376 -22.10901037 154.37467974 -26.25170898 161.93652344 C-30.95916057 170.52941931 -35.65307414 179.12782111 -39.97045898 187.92480469 C-42.71373994 193.47020373 -45.67537759 198.88102832 -48.65795898 204.29980469 C-54.22542805 214.41692882 -59.54910724 224.64858533 -64.79248047 234.9362793 C-68.19503606 241.5773279 -71.74080659 248.09861053 -75.47290039 254.55749512 C-77.80229956 258.59770856 -79.94731557 262.6618736 -81.97045898 266.86230469 C-88.21559721 279.62221353 -95.17407911 292.0311399 -102.22045898 304.36230469 C-124.33045898 304.36230469 -146.44045898 304.36230469 -169.22045898 304.36230469 C-167.76817435 300.00545079 -166.81274035 297.40184166 -164.47045898 293.73730469 C-162.22582463 290.10468387 -160.21821948 286.44992865 -158.34545898 282.61230469 C-155.87341855 277.56522214 -153.15267655 272.71496139 -150.32470703 267.85986328 C-147.37506877 262.7436147 -144.75466472 257.49290527 -142.1550293 252.19238281 C-139.61674845 247.05592069 -136.802473 242.13398505 -133.86499023 237.21386719 C-132.21509623 234.35300585 -130.73458276 231.45315596 -129.28295898 228.48730469 C-127.12966313 224.08932641 -124.80748191 219.84525638 -122.34545898 215.61230469 C-119.5341605 210.77716393 -116.93152262 205.88441859 -114.47045898 200.86230469 C-108.47707478 188.66239814 -101.79650331 176.82274121 -95.21655273 164.93261719 C-90.97027691 157.25275674 -86.77857154 149.58579108 -82.91967773 141.70214844 C-80.08857726 136.13757164 -77.0456525 130.6882154 -74.03857422 125.21728516 C-69.70463199 117.30835836 -65.51854669 109.32840614 -61.40551758 101.30249023 C-58.6491604 95.95993925 -55.70826311 90.79252952 -52.58227539 85.65820312 C-50.73677012 82.54684931 -49.16761347 79.37147426 -47.59545898 76.11230469 C-41.56931483 63.82451533 -34.84158196 51.90419937 -28.21655273 39.93261719 C-27.25921666 38.20101485 -26.30217813 36.46924796 -25.34545898 34.73730469 C-24.65601196 33.48965332 -24.65601196 33.48965332 -23.95263672 32.21679688 C-21.52814068 27.80894503 -19.18786784 23.37924864 -16.97045898 18.86230469 C-16.54136734 18.02209778 -16.1122757 17.18189087 -15.67018127 16.31622314 C-14.17607135 13.36979517 -14.17607135 13.36979517 -12.98301697 10.24139404 C-9.89345587 3.45877185 -7.63425802 0.61093718 0 0 Z " fill="#0F0F0F" transform="translate(222.220458984375,96.6376953125)"/>
<path d="M0 0 C5.30405638 4.50991854 8.00797784 10.13813038 11.1875 16.25 C12.3361491 18.41533339 13.48720858 20.57938978 14.640625 22.7421875 C15.20716797 23.8053418 15.77371094 24.86849609 16.35742188 25.96386719 C18.62569536 30.15653203 21.00415616 34.27641447 23.4375 38.375 C23.84540771 39.06263428 24.25331543 39.75026855 24.67358398 40.45874023 C26.34518314 43.26292464 28.03392364 46.05542132 29.73828125 48.83984375 C32.2222255 52.90272931 34.49822546 56.95703967 36.5625 61.25 C39.9610984 68.18954646 43.94969169 74.75425512 47.91064453 81.38427734 C51.54392851 87.48487186 55.05083475 93.63441752 58.4375 99.875 C62.51048016 107.37390744 66.74322569 114.76526801 71.0625 122.125 C75.35621839 129.4545802 79.6417673 136.78704416 83.8125 144.1875 C84.22701416 144.91146973 84.64152832 145.63543945 85.06860352 146.38134766 C85.44428467 147.05343262 85.81996582 147.72551758 86.20703125 148.41796875 C86.5316333 148.99313232 86.85623535 149.5682959 87.19067383 150.16088867 C88.17503388 152.39774667 88.54860806 154.60446406 89 157 C76.67353974 157.23230934 64.34760514 157.40968945 52.01939678 157.51812172 C46.293961 157.57018087 40.57002922 157.64072035 34.84545898 157.75439453 C29.31453118 157.86352869 23.7850442 157.92294087 18.25312233 157.94877243 C16.14913067 157.96716559 14.04521268 158.00308546 11.94183922 158.05730057 C-6.58662815 158.51562429 -6.58662815 158.51562429 -13.61010742 152.24755859 C-15.13123486 150.54842255 -16.59918535 148.79961393 -18 147 C-18.7626265 146.12880524 -19.52525299 145.25761047 -20.31098938 144.36001587 C-36.12279184 126.20979138 -39.54476941 105.25094519 -38 82 C-36.41004746 70.22412344 -29.99683176 59.66363706 -24.33496094 49.42333984 C-22.15838693 45.4722291 -20.04373042 41.48895427 -17.9375 37.5 C-17.52717529 36.72374268 -17.11685059 35.94748535 -16.6940918 35.14770508 C-10.66619801 23.6546161 -5.23163781 11.8735432 0 0 Z " fill="#1E7EA8" transform="translate(246,244)"/>
</svg>
