<svg xmlns="http://www.w3.org/2000/svg" xmlns:xlink="http://www.w3.org/1999/xlink" viewBox="0 0 960 960" width="960" height="960" preserveAspectRatio="xMidYMid meet" style="width: 100%; height: 100%; transform: translate3d(0px, 0px, 0px); content-visibility: visible;"><defs><clipPath id="__lottie_element_254"><rect width="960" height="960" x="0" y="0"></rect></clipPath></defs><g clip-path="url(#__lottie_element_254)"><g transform="matrix(1,0,0,1,480,300)" opacity="1" style="display: block;"><g opacity="1" transform="matrix(4,0,0,4,0,0)"><path stroke-linecap="butt" stroke-linejoin="miter" fill-opacity="0" stroke-miterlimit="4" stroke="rgb(255,255,255)" stroke-opacity="1" stroke-width="13" d=" M0,-28.493999481201172 C16.007999420166016,-28.493999481201172 28.493999481201172,-16.007999420166016 28.493999481201172,0 C28.493999481201172,16.007999420166016 16.007999420166016,28.493999481201172 0,28.493999481201172 C-16.007999420166016,28.493999481201172 -28.493999481201172,16.007999420166016 -28.493999481201172,0 C-28.493999481201172,-16.007999420166016 -16.007999420166016,-28.493999481201172 0,-28.493999481201172z"></path></g></g><g transform="matrix(1,0,0,1,687.8460083007812,660)" opacity="1" style="display: block;"><g opacity="1" transform="matrix(4,0,0,4,0,0)"><path stroke-linecap="butt" stroke-linejoin="miter" fill-opacity="0" stroke-miterlimit="4" stroke="rgb(255,255,255)" stroke-opacity="1" stroke-width="13" d=" M0,-28.493999481201172 C16.007999420166016,-28.493999481201172 28.493999481201172,-16.007999420166016 28.493999481201172,0 C28.493999481201172,16.007999420166016 16.007999420166016,28.493999481201172 0,28.493999481201172 C-16.007999420166016,28.493999481201172 -28.493999481201172,16.007999420166016 -28.493999481201172,0 C-28.493999481201172,-16.007999420166016 -16.007999420166016,-28.493999481201172 0,-28.493999481201172z"></path></g></g><g transform="matrix(1,0,0,1,272.15399169921875,660)" opacity="1" style="display: block;"><g opacity="1" transform="matrix(4,0,0,4,0,0)"><path stroke-linecap="butt" stroke-linejoin="miter" fill-opacity="0" stroke-miterlimit="4" stroke="rgb(255,255,255)" stroke-opacity="1" stroke-width="13" d=" M0,-28.493999481201172 C16.007999420166016,-28.493999481201172 28.493999481201172,-16.007999420166016 28.493999481201172,0 C28.493999481201172,16.007999420166016 16.007999420166016,28.493999481201172 0,28.493999481201172 C-16.007999420166016,28.493999481201172 -28.493999481201172,16.007999420166016 -28.493999481201172,0 C-28.493999481201172,-16.007999420166016 -16.007999420166016,-28.493999481201172 0,-28.493999481201172z"></path></g></g><g style="display: none;" transform="matrix(-1,0,0,1,583.2579956054688,478.8479919433594)" opacity="1"><g opacity="1" transform="matrix(4,0,0,4,0,0)"><path stroke-linecap="butt" stroke-linejoin="miter" fill-opacity="0" stroke-miterlimit="4" stroke="rgb(255,255,255)" stroke-opacity="1" stroke-width="13" d=" M-13.890000343322754,24.030000686645508 C-14.477999687194824,25.047000885009766 -14.807000160217285,25.615999221801758 -14.807000160217285,25.615999221801758"></path></g></g><g style="display: none;" transform="matrix(-1,0,0,1,481.9179992675781,660)" opacity="1"><g opacity="1" transform="matrix(4,0,0,4,0,0)"><path stroke-linecap="butt" stroke-linejoin="miter" fill-opacity="0" stroke-miterlimit="4" stroke="rgb(255,255,255)" stroke-opacity="1" stroke-width="13" d=" M23.53700065612793,0 C27.672000885009766,0 30.288000106811523,0 30.288000106811523,0"></path></g></g><g style="display: none;" transform="matrix(-1,0,0,1,376.74200439453125,478.8479919433594)" opacity="1"><g opacity="1" transform="matrix(4,0,0,4,0,0)"><path stroke-linecap="butt" stroke-linejoin="miter" fill-opacity="0" stroke-miterlimit="4" stroke="rgb(255,255,255)" stroke-opacity="1" stroke-width="13" d=" M-9.718000411987305,-16.736000061035156 C-12.609999656677246,-21.743999481201172 -14.557000160217285,-25.115999221801758 -14.557000160217285,-25.115999221801758"></path></g></g><g transform="matrix(-1,0,0,1,583.2579956054688,478.8479919433594)" opacity="1" style="display: block;"><g opacity="1" transform="matrix(4,0,0,4,0,0)"><path stroke-linecap="butt" stroke-linejoin="miter" fill-opacity="0" stroke-miterlimit="4" stroke="rgb(255,255,255)" stroke-opacity="1" stroke-width="13" d=" M14.307000160217285,-24.740999221801758 C14.307000160217285,-24.740999221801758 -14.807000160217285,25.615999221801758 -14.807000160217285,25.615999221801758"></path></g></g><g transform="matrix(-1,0,0,1,481.9179992675781,660)" opacity="1" style="display: block;"><g opacity="1" transform="matrix(4,0,0,4,0,0)"><path stroke-linecap="butt" stroke-linejoin="miter" fill-opacity="0" stroke-miterlimit="4" stroke="rgb(255,255,255)" stroke-opacity="1" stroke-width="13" d=" M-29.253999710083008,0 C-29.253999710083008,0 30.288000106811523,0 30.288000106811523,0"></path></g></g><g transform="matrix(-1,0,0,1,376.74200439453125,478.8479919433594)" opacity="1" style="display: block;"><g opacity="1" transform="matrix(4,0,0,4,0,0)"><path stroke-linecap="butt" stroke-linejoin="miter" fill-opacity="0" stroke-miterlimit="4" stroke="rgb(255,255,255)" stroke-opacity="1" stroke-width="13" d=" M14.807000160217285,25.740999221801758 C14.807000160217285,25.740999221801758 -14.557000160217285,-25.115999221801758 -14.557000160217285,-25.115999221801758"></path></g></g></g></svg>